<svg xmlns="http://www.w3.org/2000/svg" width="1565" height="1565" viewBox="0 0 414.073 414.073"><defs><clipPath clipPathUnits="userSpaceOnUse" id="l"><circle cx="207.036" cy="207.036" r="207.036" fill="#d7c6b3" stroke-width="40.757" paint-order="markers stroke fill"/></clipPath><clipPath clipPathUnits="userSpaceOnUse" id="k"><circle cx="207.036" cy="207.036" r="207.036" fill="#d7c6b3" stroke-width="40.757" paint-order="markers stroke fill"/></clipPath><clipPath clipPathUnits="userSpaceOnUse" id="j"><circle cx="207.036" cy="207.036" r="207.036" fill="#d7c6b3" stroke-width="40.757" paint-order="markers stroke fill"/></clipPath><clipPath clipPathUnits="userSpaceOnUse" id="i"><circle cx="207.036" cy="207.036" r="207.036" fill="#d7c6b3" stroke-width="40.757" paint-order="markers stroke fill"/></clipPath><clipPath clipPathUnits="userSpaceOnUse" id="h"><circle cx="207.036" cy="207.036" r="207.036" fill="#d7c6b3" stroke-width="40.757" paint-order="markers stroke fill"/></clipPath><clipPath clipPathUnits="userSpaceOnUse" id="g"><circle cx="207.036" cy="207.036" r="207.036" fill="#d7c6b3" stroke-width="40.757" paint-order="markers stroke fill"/></clipPath><clipPath clipPathUnits="userSpaceOnUse" id="f"><circle cx="207.036" cy="207.036" r="207.036" fill="#d7c6b3" stroke-width="40.757" paint-order="markers stroke fill"/></clipPath><clipPath clipPathUnits="userSpaceOnUse" id="e"><circle cx="207.036" cy="207.036" r="207.036" fill="#d7c6b3" stroke-width="40.757" paint-order="markers stroke fill"/></clipPath><clipPath clipPathUnits="userSpaceOnUse" id="d"><circle cx="207.036" cy="207.036" r="207.036" fill="#d7c6b3" stroke-width="40.757" paint-order="markers stroke fill"/></clipPath><clipPath clipPathUnits="userSpaceOnUse" id="c"><circle cx="207.036" cy="207.036" r="207.036" fill="#d7c6b3" stroke-width="40.757" paint-order="markers stroke fill"/></clipPath><clipPath clipPathUnits="userSpaceOnUse" id="b"><circle cx="207.036" cy="207.036" r="207.036" fill="#d7c6b3" stroke-width="40.757" paint-order="markers stroke fill"/></clipPath><clipPath clipPathUnits="userSpaceOnUse" id="a"><circle cx="207.036" cy="207.036" r="207.036" fill="#d7c6b3" stroke-width="40.757" paint-order="markers stroke fill"/></clipPath></defs><circle cx="207.036" cy="207.036" r="207.036" fill="#d7c6b3" paint-order="markers stroke fill"/><path d="M253.36 414.399c178.313 14 105.84-163.474 10.333-167.99-32.124 104.268-147.532 177.434-10.333 167.99z" clip-path="url(#a)" fill="#8e8370"/><path d="M132.988 243.484c-6.442 2.277-11.01 6.46-16.934 9.557-22.266 16.455-58.834 18.362-73.201 34.364-18.43 43.794-8.39 87.61-11.538 128.222 21.823 1.189 52.17 2.15 71.727-.576 40.14-45.437 8.731-140.663 30.21-171.302z" clip-path="url(#b)" fill="#100b0c"/><path d="M149.921 12.238c.836.274 1.527.181 2.381 0-25.81 15.786-35.422 15.34-46.54 37.972-1.298 2.596-14.014 27.77-14.843 31.085-.383 1.533-2.354 7.351-1.588 8.73.652 1.173 2.123 4.832 1.588 6.615-1.068 3.56-3.024 7.749-2.117 11.377.826 3.303-.528 6.623-.264 9.79.08.956 1.277 2.033 1.058 2.91-.39 1.564-.261 5.293-.265 5.292.336 2.455 2.01 10.999 4.234 11.906-1.831 3.519 1.968 9.779 3.175 13.23.436-.273 7.144 4.762 4.233 2.116 37.944-41.94 96.76-22.945 143.14-6.35.284.143 20.055 1.08 20.373 1.059.285-1.51.997-2.594 1.058-4.234-.565 1.48-2.49-.264.265-.264.764-3.494 2.537-6.656 3.296-10.14.749-3.432-.222-7.075.212-10.498.794-6.254 2.754-11.913 3.201-18.256 1.486-33.47-21.47-67.917-52.01-83.55-8.755-2.225-53.215-15.035-56.564-8.79.498-2.816-11.462-.88-14.023 0z" clip-path="url(#c)" fill="#100b0c"/><path d="M90.213 84.117c-.015.015-.029.294.089.176.014-.014.03-.294-.089-.176m53.623 1.675l.264 1.059a5.576 5.576 0 00-1.587-.53c.366 1.641 2.012 3.17 3.44 3.97.61.963 3.13 7.47 6.878 7.937-.637.369-.967.423-.529 1.058-.917.392-14.102 3.135-13.494-1.587-.905.254-1.057.714-1.322 1.587-.27-.452-.438-.594-.265-1.058l-.265-.265c-2.886 4.33-1.296 3.433-2.645 7.144.53.48.643.886.793 1.588-.693-.404-1.066-.428-1.852-.265-.096-.756-.217-1.09-.794-1.588-.102.833-.056 1.342.265 2.117l-1.323-.264c-5.796-4.773-15.208 5.239-21.167 2.645.436 3.345 2.984 3.466-1.852 3.705l.53 1.322-1.059.265c.11-1.058.05-1.69-.794-2.381-.163 3.653-6.05 5.818-3.968 10.054-1.354 3.75-3.365 16.086-1.323 18.256l-1.058.265c-.04.907-.238 1.2-1.059 1.587.616.817 1.121 1.309 2.117 1.588-.604.61-2.117 3.154-1.058 2.91-.248.857-.553 2.25.529 2.381-.737 1.248-.314 2.584-.265 3.97-1.28-.73-2.183-1.745-3.704-1.853l.794-.53c-.49-.489-.898-.267-1.323.266l-.794-3.44c2.512 9.998 7.82 16.53 10.695 24.601 8.867 23.022 12.61 39.82 30.82 57.859 1.53 1.53 5.274 3.691 5.87 5.669-3.047 2.456-14.796 12.474-16.164 11.883-4.777 14.172-4.58 36.018-6.24 42.334 64.293 80.433 160.948 38.92 141.898-41.248 4.816-6.689-19.828-15.263-24.85-16.935-21.465 41.232-55.369-128.675-62.654-133.111-12.064-18.234-22.64-7.177-31.485-12.965z" clip-path="url(#d)" fill="#46352a"/><path d="M231.983 113.259c-109.7-57.952-37.344 38.504-65.079 69.077l.043 10.831 16.668 114.436c65.285 59.577 72.442-203.8 48.368-194.344z" clip-path="url(#e)" fill="#896855"/><path d="M177.161 196.135c.093 31.4 8.845 86.397 29.509 102.098 49.545 9.131 63.126-8.312 44.714-50.535-21.065-35.572 9.624-54.43 9.619-84.052 2.475-5.22 8.937-35.734 5.482-29.388-9.28 17.043-16.74 6.928-15.957-.328-9.212-17.408 7.004-13.088-11.77-20.88-15.335-10.97-49.462 61.106-61.597 83.085z" clip-path="url(#f)" fill="#ba957a"/><path d="M260.593 164.594c-2.072 4.293-6.554 2.918-11.099 4.324-5.912 9.072-8.273 27.338-5.993 42.296 1.893 1.065 1.842 1.67 7.038-.538 1.605-12.885 8.75-33.79 10.584-46.082z" clip-path="url(#g)" fill="#100b0c"/><path d="M304.438 280.261c-12.374 49.505-4.415 91.503-10.127 133.998 41.493 1.216 74.69.992 111.991 1.204-3.511-101.472-15.056-109.215-31.938-117.62-17.182-7.396-66.293-45.458-79.635-43.602 5.272 6.96 10.442 17.278 9.709 26.02z" clip-path="url(#h)" fill="#100b0c"/><path d="M120.21 308.805c3.896 34.571-10.712 47.85-20.177 106.075 81.091 2.45 121.082 3.273 134.598-.13 13.517-3.402 3.276-21.812-9.75-82.134-15.045-1.611-17.418 3.031-28.2-.562-44.629-7.56-62.573-36.032-69.547-82.56-3.995 10.826-8.685 36.557-6.924 59.31z" clip-path="url(#i)" fill="#5f5447"/><path d="M240.137 316.09c-11.23 7.526-41.769 14.786-37.301 18.905 50.394.979 74.473-33.61 71.793-87.02-1.574-.054-14.84-7.842-12.147-.621 3.132 31.548-.043 55.71-22.345 68.735z" clip-path="url(#j)" fill="#c2ab96"/><path d="M217.224 144.729c3.54 1.807-1.364 1.936-1.059 3.704-.707-.148-1.049-.312-1.587-.794-1.63 20.59-50.474 79.02-6.086 80.698.673-5.421 4.265.242 2.91-4.498 11.091 13.494 60.165-67.829 9.526-78.052-1.31-.374-2.305-1.015-3.704-1.058z" clip-path="url(#k)" fill="#c2ab96"/><path d="M214.351 293.799c.673-5.421 4.265.241 2.91-4.498 11.091 13.494 61.223-30.787 10.584-41.01-22.001-10.622-38.017 43.281-13.494 45.508z" clip-path="url(#l)" fill="#c2ab96"/></svg>