<svg xmlns="http://www.w3.org/2000/svg" width="1565" height="1565" viewBox="0 0 414.1 414.1"><style>.a{fill:#100b0c;stroke-width:0.3;}.b{fill:#c2ab96;stroke-width:0.3;}</style><path d="M253.4 414.4C431.7 428.4 359.2 250.9 263.7 246.4 231.6 350.7 116.2 423.8 253.4 414.4Z" style="fill:#8e8370;stroke-width:0.3"/><path d="m133 243.5c-6.4 2.3-11 6.5-16.9 9.6-22.3 16.5-58.8 18.4-73.2 34.4-18.4 43.8-8.4 87.6-11.5 128.2 21.8 1.2 52.2 2.2 71.7-0.6 40.1-45.4 8.7-140.7 30.2-171.3z" class="a"/><path d="m149.9 12.2c0.8 0.3 1.5 0.2 2.4 0-25.8 15.8-35.4 15.3-46.5 38-1.3 2.6-14 27.8-14.8 31.1-0.4 1.5-2.4 7.4-1.6 8.7 0.7 1.2 2.1 4.8 1.6 6.6-1.1 3.6-3 7.7-2.1 11.4 0.8 3.3-0.5 6.6-0.3 9.8 0.1 1 1.3 2 1.1 2.9-0.4 1.6-0.3 5.3-0.3 5.3 0.3 2.5 2 11 4.2 11.9-1.8 3.5 2 9.8 3.2 13.2 0.4-0.3 7.1 4.8 4.2 2.1 37.9-41.9 96.8-22.9 143.1-6.3 0.3 0.1 20.1 1.1 20.4 1.1 0.3-1.5 1-2.6 1.1-4.2-0.6 1.5-2.5-0.3 0.3-0.3 0.8-3.5 2.5-6.7 3.3-10.1 0.7-3.4-0.2-7.1 0.2-10.5 0.8-6.3 2.8-11.9 3.2-18.3 1.5-33.5-21.5-67.9-52-83.5-8.8-2.2-53.2-15-56.6-8.8 0.5-2.8-11.5-0.9-14 0z" class="a"/><path d="m90.2 84.1c0 0 0 0.3 0.1 0.2 0 0 0-0.3-0.1-0.2m53.6 1.7 0.3 1.1c-0.5-0.3-1-0.4-1.6-0.5 0.4 1.6 2 3.2 3.4 4 0.6 1 3.1 7.5 6.9 7.9-0.6 0.4-1 0.4-0.5 1.1-0.9 0.4-14.1 3.1-13.5-1.6-0.9 0.3-1.1 0.7-1.3 1.6-0.3-0.5-0.4-0.6-0.3-1.1l-0.3-0.3c-2.9 4.3-1.3 3.4-2.6 7.1 0.5 0.5 0.6 0.9 0.8 1.6-0.7-0.4-1.1-0.4-1.9-0.3-0.1-0.8-0.2-1.1-0.8-1.6-0.1 0.8-0.1 1.3 0.3 2.1l-1.3-0.3c-5.8-4.8-15.2 5.2-21.2 2.6 0.4 3.3 3 3.5-1.9 3.7l0.5 1.3-1.1 0.3c0.1-1.1 0.1-1.7-0.8-2.4-0.2 3.7-6 5.8-4 10.1-1.4 3.8-3.4 16.1-1.3 18.3l-1.1 0.3c0 0.9-0.2 1.2-1.1 1.6 0.6 0.8 1.1 1.3 2.1 1.6-0.6 0.6-2.1 3.2-1.1 2.9-0.2 0.9-0.6 2.3 0.5 2.4-0.7 1.2-0.3 2.6-0.3 4-1.3-0.7-2.2-1.7-3.7-1.9l0.8-0.5c-0.5-0.5-0.9-0.3-1.3 0.3l-0.8-3.4c2.5 10 7.8 16.5 10.7 24.6 8.9 23 12.6 39.8 30.8 57.9 1.5 1.5 5.3 3.7 5.9 5.7-3 2.5-14.8 12.5-16.2 11.9-4.8 14.2-4.6 36-6.2 42.3 64.3 80.4 160.9 38.9 141.9-41.2 4.8-6.7-19.8-15.3-24.8-16.9-21.5 41.2-55.4-128.7-62.7-133.1-12.1-18.2-22.6-7.2-31.5-13z" style="fill:#46352a;stroke-width:0.3"/><path d="m232 113.3c-109.7-58-37.3 38.5-65.1 69.1l0 10.8 16.7 114.4C248.9 367.2 256.1 103.8 232 113.3Z" style="fill:#896855;stroke-width:0.3"/><path d="m177.2 196.1c0.1 31.4 8.8 86.4 29.5 102.1 49.5 9.1 63.1-8.3 44.7-50.5-21.1-35.6 9.6-54.4 9.6-84.1 2.5-5.2 8.9-35.7 5.5-29.4-9.3 17-16.7 6.9-16-0.3-9.2-17.4 7-13.1-11.8-20.9-15.3-11-49.5 61.1-61.6 83.1z" style="fill:#ba957a;stroke-width:0.3"/><path d="m260.6 164.6c-2.1 4.3-6.6 2.9-11.1 4.3-5.9 9.1-8.3 27.3-6 42.3 1.9 1.1 1.8 1.7 7-0.5 1.6-12.9 8.7-33.8 10.6-46.1z" class="a"/><path d="m304.4 280.3c-12.4 49.5-4.4 91.5-10.1 134 41.5 1.2 74.7 1 112 1.2-3.5-101.5-15.1-109.2-31.9-117.6-17.2-7.4-66.3-45.5-79.6-43.6 5.3 7 10.4 17.3 9.7 26z" class="a"/><path d="m120.2 308.8c3.9 34.6-10.7 47.9-20.2 106.1 81.1 2.4 121.1 3.3 134.6-0.1 13.5-3.4 3.3-21.8-9.8-82.1-15-1.6-17.4 3-28.2-0.6-44.6-7.6-62.6-36-69.5-82.6-4 10.8-8.7 36.6-6.9 59.3z" style="fill:#5f5447;stroke-width:0.3"/><path d="m240.1 316.1c-11.2 7.5-41.8 14.8-37.3 18.9 50.4 1 74.5-33.6 71.8-87-1.6-0.1-14.8-7.8-12.1-0.6 3.1 31.5 0 55.7-22.3 68.7z" class="b"/><path d="m217.2 144.7c3.5 1.8-1.4 1.9-1.1 3.7-0.7-0.1-1-0.3-1.6-0.8-1.6 20.6-50.5 79-6.1 80.7 0.7-5.4 4.3 0.2 2.9-4.5 11.1 13.5 60.2-67.8 9.5-78.1-1.3-0.4-2.3-1-3.7-1.1z" class="b"/><path d="m214.4 293.8c0.7-5.4 4.3 0.2 2.9-4.5 11.1 13.5 61.2-30.8 10.6-41-22-10.6-38 43.3-13.5 45.5z" class="b"/></svg>